{
  "accessors": [
    {
      "bufferView": 2,
      "componentType": 5126,
      "count": 65532,
      "max": [
        6.0170135498046875,
        1.1357449293136597,
        6.0170135498046875
      ],
      "min": [
        -6.0170135498046875,
        -0.343826025724411,
        -6.0170135498046875
      ],
      "type": "VEC3"
    },
    {
      "bufferView": 2,
      "byteOffset": 786384,
      "componentType": 5126,
      "count": 65532,
      "max": [
        0.9402387738227844,
        1.0,
        0.9400415420532227
      ],
      "min": [
        -0.98172527551651,
        -1.0,
        -0.9497956037521362
      ],
      "type": "VEC3"
    },
    {
      "bufferView": 3,
      "componentType": 5126,
      "count": 65532,
      "max": [
        0.7098039388656616,
        0.7764706015586853,
        0.6509804129600525,
        1.0
      ],
      "min": [
        0.0,
        0.0,
        0.0,
        1.0
      ],
      "type": "VEC4"
    },
    {
      "bufferView": 1,
      "componentType": 5126,
      "count": 65532,
      "max": [
        0.8798341155052185,
        0.8708921074867249
      ],
      "min": [
        0.0,
        0.0
      ],
      "type": "VEC2"
    },
    {
      "bufferView": 0,
      "componentType": 5125,
      "count": 296478,
      "type": "SCALAR"
    },
    {
      "bufferView": 2,
      "byteOffset": 1572768,
      "componentType": 5126,
      "count": 65532,
      "max": [
        6.0169758796691895,
        0.9757716059684753,
        6.011866569519043
      ],
      "min": [
        -5.803839683532715,
        -0.3438217043876648,
        -5.868769645690918
      ],
      "type": "VEC3"
    },
    {
      "bufferView": 2,
      "byteOffset": 2359152,
      "componentType": 5126,
      "count": 65532,
      "max": [
        0.9454235434532166,
        1.0,
        0.915695071220398
      ],
      "min": [
        -0.914180338382721,
        -0.7072328329086304,
        -0.9358424544334412
      ],
      "type": "VEC3"
    },
    {
      "bufferView": 3,
      "byteOffset": 1048512,
      "componentType": 5126,
      "count": 65532,
      "max": [
        0.729411780834198,
        0.8078431487083435,
        0.658823549747467,
        1.0
      ],
      "min": [
        0.0,
        0.0,
        0.0,
        1.0
      ],
      "type": "VEC4"
    },
    {
      "bufferView": 1,
      "byteOffset": 524256,
      "componentType": 5126,
      "count": 65532,
      "max": [
        0.7845261096954346,
        0.5931129455566406
      ],
      "min": [
        0.0,
        0.0
      ],
      "type": "VEC2"
    },
    {
      "bufferView": 0,
      "byteOffset": 1185912,
      "componentType": 5125,
      "count": 300765,
      "type": "SCALAR"
    },
    {
      "bufferView": 2,
      "byteOffset": 3145536,
      "componentType": 5126,
      "count": 65532,
      "max": [
        5.973951816558838,
        1.0753684043884277,
        5.9567742347717285
      ],
      "min": [
        -5.812788963317871,
        -0.3438217043876648,
        -5.983529090881348
      ],
      "type": "VEC3"
    },
    {
      "bufferView": 2,
      "byteOffset": 3931920,
      "componentType": 5126,
      "count": 65532,
      "max": [
        0.930281937122345,
        1.0,
        0.950265645980835
      ],
      "min": [
        -0.9967908263206482,
        -0.7073793411254883,
        -0.9617899656295776
      ],
      "type": "VEC3"
    },
    {
      "bufferView": 3,
      "byteOffset": 2097024,
      "componentType": 5126,
      "count": 65532,
      "max": [
        0.7529411911964417,
        0.8078431487083435,
        0.7098039388656616,
        1.0
      ],
      "min": [
        0.0,
        0.0,
        0.0,
        1.0
      ],
      "type": "VEC4"
    },
    {
      "bufferView": 1,
      "byteOffset": 1048512,
      "componentType": 5126,
      "count": 65532,
      "max": [
        0.6579199433326721,
        0.3789697289466858
      ],
      "min": [
        0.0,
        0.0
      ],
      "type": "VEC2"
    },
    {
      "bufferView": 0,
      "byteOffset": 2388972,
      "componentType": 5125,
      "count": 305547,
      "type": "SCALAR"
    },
    {
      "bufferView": 2,
      "byteOffset": 4718304,
      "componentType": 5126,
      "count": 65532,
      "max": [
        5.7860589027404785,
        1.0272109508514404,
        5.911138534545898
      ],
      "min": [
        -5.722540378570557,
        -0.3438217043876648,
        -5.960516452789307
      ],
      "type": "VEC3"
    },
    {
      "bufferView": 2,
      "byteOffset": 5504688,
      "componentType": 5126,
      "count": 65532,
      "max": [
        0.930281937122345,
        1.0,
        0.9283742904663086
      ],
      "min": [
        -0.9297735691070557,
        -0.7073811888694763,
        -0.9415531158447266
      ],
      "type": "VEC3"
    },
    {
      "bufferView": 3,
      "byteOffset": 3145536,
      "componentType": 5126,
      "count": 65532,
      "max": [
        0.7098039388656616,
        0.7529411911964417,
        0.658823549747467,
        1.0
      ],
      "min": [
        0.0,
        0.0,
        0.0,
        1.0
      ],
      "type": "VEC4"
    },
    {
      "bufferView": 1,
      "byteOffset": 1572768,
      "componentType": 5126,
      "count": 65532,
      "max": [
        0.45370301604270935,
        0.7739601731300354
      ],
      "min": [
        0.0,
        0.0
      ],
      "type": "VEC2"
    },
    {
      "bufferView": 0,
      "byteOffset": 3611160,
      "componentType": 5125,
      "count": 307728,
      "type": "SCALAR"
    },
    {
      "bufferView": 2,
      "byteOffset": 6291072,
      "componentType": 5126,
      "count": 65532,
      "max": [
        6.008413314819336,
        1.0569922924041748,
        5.801774978637695
      ],
      "min": [
        -5.8523783683776855,
        -0.3438217043876648,
        -6.0170135498046875
      ],
      "type": "VEC3"
    },
    {
      "bufferView": 2,
      "byteOffset": 7077456,
      "componentType": 5126,
      "count": 65532,
      "max": [
        0.9868568778038025,
        1.0,
        0.9649519324302673
      ],
      "min": [
        -0.9483360648155212,
        -0.7074708342552185,
        -0.9351649880409241
      ],
      "type": "VEC3"
    },
    {
      "bufferView": 3,
      "byteOffset": 4194048,
      "componentType": 5126,
      "count": 65532,
      "max": [
        0.7176470756530762,
        0.7686274647712708,
        0.6745098233222961,
        1.0
      ],
      "min": [
        0.0,
        0.003921568859368563,
        0.0,
        1.0
      ],
      "type": "VEC4"
    },
    {
      "bufferView": 1,
      "byteOffset": 2097024,
      "componentType": 5126,
      "count": 65532,
      "max": [
        0.6974121928215027,
        0.9016750454902649
      ],
      "min": [
        0.0,
        0.0
      ],
      "type": "VEC2"
    },
    {
      "bufferView": 0,
      "byteOffset": 4842072,
      "componentType": 5125,
      "count": 299505,
      "type": "SCALAR"
    },
    {
      "bufferView": 2,
      "byteOffset": 7863840,
      "componentType": 5126,
      "count": 65532,
      "max": [
        6.0170135498046875,
        1.1357449293136597,
        6.0170135498046875
      ],
      "min": [
        -6.0170135498046875,
        -0.3438217043876648,
        -6.016347408294678
      ],
      "type": "VEC3"
    },
    {
      "bufferView": 2,
      "byteOffset": 8650224,
      "componentType": 5126,
      "count": 65532,
      "max": [
        0.9241647720336914,
        1.0,
        0.9812459349632263
      ],
      "min": [
        -0.9332065582275391,
        -0.7099254131317139,
        -0.9421541690826416
      ],
      "type": "VEC3"
    },
    {
      "bufferView": 3,
      "byteOffset": 5242560,
      "componentType": 5126,
      "count": 65532,
      "max": [
        0.7921568751335144,
        0.8549019694328308,
        0.7372549176216125,
        1.0
      ],
      "min": [
        0.003921568859368563,
        0.0,
        0.0,
        1.0
      ],
      "type": "VEC4"
    },
    {
      "bufferView": 1,
      "byteOffset": 2621280,
      "componentType": 5126,
      "count": 65532,
      "max": [
        0.8479970693588257,
        0.7094597220420837
      ],
      "min": [
        0.0,
        0.0
      ],
      "type": "VEC2"
    },
    {
      "bufferView": 0,
      "byteOffset": 6040092,
      "componentType": 5125,
      "count": 274905,
      "type": "SCALAR"
    },
    {
      "bufferView": 2,
      "byteOffset": 9436608,
      "componentType": 5126,
      "count": 65533,
      "max": [
        6.00869083404541,
        1.124103307723999,
        5.975961685180664
      ],
      "min": [
        -5.966134071350098,
        0.08586345613002777,
        -5.846435546875
      ],
      "type": "VEC3"
    },
    {
      "bufferView": 2,
      "byteOffset": 10223004,
      "componentType": 5126,
      "count": 65533,
      "max": [
        0.9885257482528687,
        1.0,
        0.926781415939331
      ],
      "min": [
        -0.9297735691070557,
        -0.9999968409538269,
        -0.9499050974845886
      ],
      "type": "VEC3"
    },
    {
      "bufferView": 3,
      "byteOffset": 6291072,
      "componentType": 5126,
      "count": 65533,
      "max": [
        0.729411780834198,
        0.8078431487083435,
        0.6745098233222961,
        1.0
      ],
      "min": [
        0.003921568859368563,
        0.0,
        0.0,
        1.0
      ],
      "type": "VEC4"
    },
    {
      "bufferView": 1,
      "byteOffset": 3145536,
      "componentType": 5126,
      "count": 65533,
      "max": [
        0.903653085231781,
        0.9093422889709473
      ],
      "min": [
        0.0,
        0.0
      ],
      "type": "VEC2"
    },
    {
      "bufferView": 0,
      "byteOffset": 7139712,
      "componentType": 5125,
      "count": 193494,
      "type": "SCALAR"
    },
    {
      "bufferView": 2,
      "byteOffset": 11009400,
      "componentType": 5126,
      "count": 20647,
      "max": [
        6.01596212387085,
        1.082210898399353,
        6.014178276062012
      ],
      "min": [
        -6.009523868560791,
        0.10904106497764587,
        -5.987473964691162
      ],
      "type": "VEC3"
    },
    {
      "bufferView": 2,
      "byteOffset": 11257164,
      "componentType": 5126,
      "count": 20647,
      "max": [
        0.927577018737793,
        0.9999979734420776,
        0.9245181083679199
      ],
      "min": [
        -0.9328283071517944,
        -0.9994885325431824,
        -0.9358424544334412
      ],
      "type": "VEC3"
    },
    {
      "bufferView": 3,
      "byteOffset": 7339600,
      "componentType": 5126,
      "count": 20647,
      "max": [
        0.5843137502670288,
        0.6117647290229797,
        0.5647059082984924,
        1.0
      ],
      "min": [
        0.0,
        0.0,
        0.0,
        1.0
      ],
      "type": "VEC4"
    },
    {
      "bufferView": 1,
      "byteOffset": 3669800,
      "componentType": 5126,
      "count": 20647,
      "max": [
        0.8721277117729187,
        0.8662634491920471
      ],
      "min": [
        0.0,
        0.0
      ],
      "type": "VEC2"
    },
    {
      "bufferView": 0,
      "byteOffset": 7913688,
      "componentType": 5125,
      "count": 35313,
      "type": "SCALAR"
    },
    {
      "bufferView": 2,
      "byteOffset": 11504928,
      "componentType": 5126,
      "count": 3647,
      "max": [
        0.8891549706459045,
        3.1042645787238143e-08,
        0.8891359567642212
      ],
      "min": [
        -0.8889988660812378,
        -1.3164708434487693e-08,
        -0.8890178203582764
      ],
      "type": "VEC3"
    },
    {
      "bufferView": 2,
      "byteOffset": 11548692,
      "componentType": 5126,
      "count": 3647,
      "max": [
        1.5284838282211832e-12,
        1.0,
        1.5230182566494666e-12
      ],
      "min": [
        1.5284838282211832e-12,
        1.0,
        1.5230182566494666e-12
      ],
      "type": "VEC3"
    },
    {
      "bufferView": 3,
      "byteOffset": 7669952,
      "componentType": 5126,
      "count": 3647,
      "max": [
        1.0,
        1.0,
        1.0,
        1.0
      ],
      "min": [
        1.0,
        1.0,
        1.0,
        1.0
      ],
      "type": "VEC4"
    },
    {
      "bufferView": 1,
      "byteOffset": 3834976,
      "componentType": 5126,
      "count": 3647,
      "max": [
        0.9495274424552917,
        0.9495274424552917
      ],
      "min": [
        0.05047255754470825,
        0.05047255754470825
      ],
      "type": "VEC2"
    },
    {
      "bufferView": 0,
      "byteOffset": 8054940,
      "componentType": 5125,
      "count": 10935,
      "type": "SCALAR"
    },
    {
      "bufferView": 2,
      "byteOffset": 11592456,
      "componentType": 5126,
      "count": 3647,
      "max": [
        0.8891549706459045,
        3.1042645787238143e-08,
        0.8891359567642212
      ],
      "min": [
        -0.8889988660812378,
        -1.3164708434487693e-08,
        -0.8890178203582764
      ],
      "type": "VEC3"
    },
    {
      "bufferView": 2,
      "byteOffset": 11636220,
      "componentType": 5126,
      "count": 3647,
      "max": [
        1.5284838282211832e-12,
        1.0,
        1.5230182566494666e-12
      ],
      "min": [
        1.5284838282211832e-12,
        1.0,
        1.5230182566494666e-12
      ],
      "type": "VEC3"
    },
    {
      "bufferView": 3,
      "byteOffset": 7728304,
      "componentType": 5126,
      "count": 3647,
      "max": [
        1.0,
        1.0,
        1.0,
        1.0
      ],
      "min": [
        1.0,
        1.0,
        1.0,
        1.0
      ],
      "type": "VEC4"
    },
    {
      "bufferView": 1,
      "byteOffset": 3864152,
      "componentType": 5126,
      "count": 3647,
      "max": [
        0.9495274424552917,
        0.9495274424552917
      ],
      "min": [
        0.05047255754470825,
        0.05047255754470825
      ],
      "type": "VEC2"
    },
    {
      "bufferView": 0,
      "byteOffset": 8098680,
      "componentType": 5125,
      "count": 10935,
      "type": "SCALAR"
    },
    {
      "bufferView": 4,
      "componentType": 5126,
      "count": 250,
      "max": [
        10.416666984558105
      ],
      "min": [
        0.0416666679084301
      ],
      "type": "SCALAR"
    },
    {
      "bufferView": 5,
      "componentType": 5126,
      "count": 250,
      "max": [
        0.0,
        0.5727434754371643,
        -0.0
      ],
      "min": [
        0.0,
        0.2674437165260315,
        -0.0
      ],
      "type": "VEC3"
    },
    {
      "bufferView": 4,
      "byteOffset": 1000,
      "componentType": 5126,
      "count": 250,
      "max": [
        10.416666984558105
      ],
      "min": [
        0.0416666679084301
      ],
      "type": "SCALAR"
    },
    {
      "bufferView": 5,
      "byteOffset": 3000,
      "componentType": 5126,
      "count": 250,
      "max": [
        0.0,
        0.5710018277168274,
        -0.0
      ],
      "min": [
        0.0,
        0.2657020688056946,
        -0.0
      ],
      "type": "VEC3"
    }
  ],
  "animations": [
    {
      "channels": [
        {
          "sampler": 0,
          "target": {
            "node": 12,
            "path": "translation"
          }
        },
        {
          "sampler": 1,
          "target": {
            "node": 14,
            "path": "translation"
          }
        }
      ],
      "name": "Animation",
      "samplers": [
        {
          "input": 50,
          "interpolation": "LINEAR",
          "output": 51
        },
        {
          "input": 52,
          "interpolation": "LINEAR",
          "output": 53
        }
      ]
    }
  ],
  "asset": {
    "extras": {
      "author": "VIS-All-3D (https://sketchfab.com/VIS-All)",
      "license": "CC-BY-4.0 (http://creativecommons.org/licenses/by/4.0/)",
      "source": "https://sketchfab.com/3d-models/water-refraction-with-reflection-c0040405824942138223b37fecbe263f",
      "title": "Water Refraction with Reflection"
    },
    "generator": "Sketchfab-12.67.0",
    "version": "2.0"
  },
  "bufferViews": [
    {
      "buffer": 0,
      "byteLength": 8142420,
      "name": "floatBufferViews",
      "target": 34963
    },
    {
      "buffer": 0,
      "byteLength": 3893328,
      "byteOffset": 8142420,
      "byteStride": 8,
      "name": "floatBufferViews",
      "target": 34962
    },
    {
      "buffer": 0,
      "byteLength": 11679984,
      "byteOffset": 12035748,
      "byteStride": 12,
      "name": "floatBufferViews",
      "target": 34962
    },
    {
      "buffer": 0,
      "byteLength": 7786656,
      "byteOffset": 23715732,
      "byteStride": 16,
      "name": "floatBufferViews",
      "target": 34962
    },
    {
      "buffer": 0,
      "byteLength": 2000,
      "byteOffset": 31502388,
      "name": "floatBufferViews"
    },
    {
      "buffer": 0,
      "byteLength": 6000,
      "byteOffset": 31504388,
      "byteStride": 12,
      "name": "floatBufferViews"
    }
  ],
  "buffers": [
    {
      "byteLength": 31510388,
      "uri": "scene.bin"
    }
  ],
  "extensionsUsed": [
    "KHR_materials_transmission"
  ],
  "materials": [
    {
      "name": "Material.001",
      "pbrMetallicRoughness": {
        "baseColorFactor": [
          0.5105192313264385,
          0.5105192313264385,
          0.5105192313264385,
          1.0
        ],
        "metallicFactor": 0.0
      }
    },
    {
      "alphaMode": "BLEND",
      "doubleSided": true,
      "name": "Water_1",
      "pbrMetallicRoughness": {
        "baseColorFactor": [
          0.14976519840014405,
          0.3002611581361581,
          0.3052298738151786,
          0.21532462271052438
        ],
        "roughnessFactor": 0.0
      }
    },
    {
      "alphaMode": "BLEND",
      "doubleSided": true,
      "extensions": {
        "KHR_materials_transmission": {
          "transmissionFactor": 1.0
        }
      },
      "name": "Water_2",
      "pbrMetallicRoughness": {
        "baseColorFactor": [
          1.0,
          1.0,
          1.0,
          0.25
        ]
      }
    }
  ],
  "meshes": [
    {
      "name": "Object_0",
      "primitives": [
        {
          "attributes": {
            "COLOR_0": 2,
            "NORMAL": 1,
            "POSITION": 0,
            "TEXCOORD_0": 3
          },
          "indices": 4,
          "material": 0,
          "mode": 4
        }
      ]
    },
    {
      "name": "Object_1",
      "primitives": [
        {
          "attributes": {
            "COLOR_0": 7,
            "NORMAL": 6,
            "POSITION": 5,
            "TEXCOORD_0": 8
          },
          "indices": 9,
          "material": 0,
          "mode": 4
        }
      ]
    },
    {
      "name": "Object_2",
      "primitives": [
        {
          "attributes": {
            "COLOR_0": 12,
            "NORMAL": 11,
            "POSITION": 10,
            "TEXCOORD_0": 13
          },
          "indices": 14,
          "material": 0,
          "mode": 4
        }
      ]
    },
    {
      "name": "Object_3",
      "primitives": [
        {
          "attributes": {
            "COLOR_0": 17,
            "NORMAL": 16,
            "POSITION": 15,
            "TEXCOORD_0": 18
          },
          "indices": 19,
          "material": 0,
          "mode": 4
        }
      ]
    },
    {
      "name": "Object_4",
      "primitives": [
        {
          "attributes": {
            "COLOR_0": 22,
            "NORMAL": 21,
            "POSITION": 20,
            "TEXCOORD_0": 23
          },
          "indices": 24,
          "material": 0,
          "mode": 4
        }
      ]
    },
    {
      "name": "Object_5",
      "primitives": [
        {
          "attributes": {
            "COLOR_0": 27,
            "NORMAL": 26,
            "POSITION": 25,
            "TEXCOORD_0": 28
          },
          "indices": 29,
          "material": 0,
          "mode": 4
        }
      ]
    },
    {
      "name": "Object_6",
      "primitives": [
        {
          "attributes": {
            "COLOR_0": 32,
            "NORMAL": 31,
            "POSITION": 30,
            "TEXCOORD_0": 33
          },
          "indices": 34,
          "material": 0,
          "mode": 4
        }
      ]
    },
    {
      "name": "Object_7",
      "primitives": [
        {
          "attributes": {
            "COLOR_0": 37,
            "NORMAL": 36,
            "POSITION": 35,
            "TEXCOORD_0": 38
          },
          "indices": 39,
          "material": 0,
          "mode": 4
        }
      ]
    },
    {
      "name": "Object_8",
      "primitives": [
        {
          "attributes": {
            "COLOR_0": 42,
            "NORMAL": 41,
            "POSITION": 40,
            "TEXCOORD_0": 43
          },
          "indices": 44,
          "material": 1,
          "mode": 4
        }
      ]
    },
    {
      "name": "Object_9",
      "primitives": [
        {
          "attributes": {
            "COLOR_0": 47,
            "NORMAL": 46,
            "POSITION": 45,
            "TEXCOORD_0": 48
          },
          "indices": 49,
          "material": 2,
          "mode": 4
        }
      ]
    }
  ],
  "nodes": [
    {
      "children": [
        1
      ],
      "matrix": [
        1.0,
        0.0,
        0.0,
        0.0,
        0.0,
        2.220446049250313e-16,
        -1.0,
        0.0,
        0.0,
        1.0,
        2.220446049250313e-16,
        0.0,
        0.0,
        0.0,
        0.0,
        1.0
      ],
      "name": "Sketchfab_model"
    },
    {
      "children": [
        2
      ],
      "name": "root"
    },
    {
      "children": [
        3,
        12,
        14
      ],
      "matrix": [
        1.0,
        0.0,
        0.0,
        0.0,
        0.0,
        2.220446049250313e-16,
        1.0,
        0.0,
        0.0,
        -1.0,
        2.220446049250313e-16,
        0.0,
        0.0,
        0.0,
        0.0,
        1.0
      ],
      "name": "GLTF_SceneRootNode"
    },
    {
      "children": [
        4,
        5,
        6,
        7,
        8,
        9,
        10,
        11
      ],
      "name": "Landscape_0"
    },
    {
      "mesh": 0,
      "name": "Object_4"
    },
    {
      "mesh": 1,
      "name": "Object_5"
    },
    {
      "mesh": 2,
      "name": "Object_6"
    },
    {
      "mesh": 3,
      "name": "Object_7"
    },
    {
      "mesh": 4,
      "name": "Object_8"
    },
    {
      "mesh": 5,
      "name": "Object_9"
    },
    {
      "mesh": 6,
      "name": "Object_10"
    },
    {
      "mesh": 7,
      "name": "Object_11"
    },
    {
      "children": [
        13
      ],
      "name": "Water 1_1",
      "scale": [
        6.69259786605835,
        6.69259786605835,
        6.69259786605835
      ],
      "translation": [
        0.0,
        0.47213494777679443,
        0.0
      ]
    },
    {
      "mesh": 8,
      "name": "Object_13"
    },
    {
      "children": [
        15
      ],
      "name": "Water 2_2",
      "scale": [
        6.69259786605835,
        6.69259786605835,
        6.69259786605835
      ],
      "translation": [
        0.0,
        0.4703933000564575,
        0.0
      ]
    },
    {
      "mesh": 9,
      "name": "Object_15"
    }
  ],
  "scene": 0,
  "scenes": [
    {
      "name": "Sketchfab_Scene",
      "nodes": [
        0
      ]
    }
  ]
}
