{
  "accessors": [
    {
      "bufferView": 2,
      "componentType": 5126,
      "count": 65532,
      "max": [
        0.4196985363960266,
        0.1587032675743103,
        0.4972378611564636
      ],
      "min": [
        -0.42151328921318054,
        -0.1896846890449524,
        -0.8873463273048401
      ],
      "type": "VEC3"
    },
    {
      "bufferView": 2,
      "byteOffset": 786384,
      "componentType": 5126,
      "count": 65532,
      "max": [
        0.9999944567680359,
        0.9999906420707703,
        0.9998117089271545
      ],
      "min": [
        -0.9999391436576843,
        -0.9999898076057434,
        -0.9999912977218628
      ],
      "type": "VEC3"
    },
    {
      "bufferView": 1,
      "componentType": 5126,
      "count": 65532,
      "max": [
        0.9683668613433838,
        0.9977071285247803
      ],
      "min": [
        0.002292877295985818,
        0.0037792325019836426
      ],
      "type": "VEC2"
    },
    {
      "bufferView": 0,
      "componentType": 5125,
      "count": 351441,
      "type": "SCALAR"
    },
    {
      "bufferView": 2,
      "byteOffset": 1572768,
      "componentType": 5126,
      "count": 49824,
      "max": [
        0.41625675559043884,
        0.13991433382034302,
        0.7648381590843201
      ],
      "min": [
        -0.45126184821128845,
        -0.1896846890449524,
        -0.8871434330940247
      ],
      "type": "VEC3"
    },
    {
      "bufferView": 2,
      "byteOffset": 2170656,
      "componentType": 5126,
      "count": 49824,
      "max": [
        0.9999760985374451,
        0.9999260902404785,
        0.9999751448631287
      ],
      "min": [
        -0.9999930262565613,
        -0.9999800324440002,
        -0.9999436736106873
      ],
      "type": "VEC3"
    },
    {
      "bufferView": 1,
      "byteOffset": 524256,
      "componentType": 5126,
      "count": 49824,
      "max": [
        0.9377859830856323,
        0.9977071285247803
      ],
      "min": [
        0.002292877295985818,
        0.002292931079864502
      ],
      "type": "VEC2"
    },
    {
      "bufferView": 0,
      "byteOffset": 1405764,
      "componentType": 5125,
      "count": 248631,
      "type": "SCALAR"
    }
  ],
  "asset": {
    "extras": {
      "author": "Diverlaura (https://sketchfab.com/Diverlaura)",
      "license": "CC-BY-4.0 (http://creativecommons.org/licenses/by/4.0/)",
      "source": "https://sketchfab.com/3d-models/full-body-8156bbe4148a417e89e4dcda25286f56",
      "title": "Full body"
    },
    "generator": "Sketchfab-12.68.0",
    "version": "2.0"
  },
  "bufferViews": [
    {
      "buffer": 0,
      "byteLength": 2400288,
      "name": "floatBufferViews",
      "target": 34963
    },
    {
      "buffer": 0,
      "byteLength": 922848,
      "byteOffset": 2400288,
      "byteStride": 8,
      "name": "floatBufferViews",
      "target": 34962
    },
    {
      "buffer": 0,
      "byteLength": 2768544,
      "byteOffset": 3323136,
      "byteStride": 12,
      "name": "floatBufferViews",
      "target": 34962
    }
  ],
  "buffers": [
    {
      "byteLength": 6091680,
      "uri": "scene.bin"
    }
  ],
  "extensionsUsed": [
    "KHR_materials_unlit"
  ],
  "images": [
    {
      "uri": "textures/material_0_baseColor.jpeg"
    }
  ],
  "materials": [
    {
      "doubleSided": true,
      "extensions": {
        "KHR_materials_unlit": {}
      },
      "name": "material_0",
      "pbrMetallicRoughness": {
        "baseColorTexture": {
          "index": 0
        },
        "metallicFactor": 0.0
      }
    }
  ],
  "meshes": [
    {
      "name": "Object_0",
      "primitives": [
        {
          "attributes": {
            "NORMAL": 1,
            "POSITION": 0,
            "TEXCOORD_0": 2
          },
          "indices": 3,
          "material": 0,
          "mode": 4
        }
      ]
    },
    {
      "name": "Object_1",
      "primitives": [
        {
          "attributes": {
            "NORMAL": 5,
            "POSITION": 4,
            "TEXCOORD_0": 6
          },
          "indices": 7,
          "material": 0,
          "mode": 4
        }
      ]
    }
  ],
  "nodes": [
    {
      "children": [
        1
      ],
      "matrix": [
        1.0,
        0.0,
        0.0,
        0.0,
        0.0,
        -0.3420201539993284,
        -0.9396926164627076,
        0.0,
        0.0,
        0.9396926164627076,
        -0.3420201539993284,
        0.0,
        0.0,
        0.0,
        0.0,
        1.0
      ],
      "name": "Sketchfab_model"
    },
    {
      "children": [
        2,
        3
      ],
      "name": "model_mesh.obj.cleaner.materialmerger.gles"
    },
    {
      "mesh": 0,
      "name": "Object_2"
    },
    {
      "mesh": 1,
      "name": "Object_3"
    }
  ],
  "samplers": [
    {
      "magFilter": 9729,
      "minFilter": 9987,
      "wrapS": 10497,
      "wrapT": 10497
    }
  ],
  "scene": 0,
  "scenes": [
    {
      "name": "Sketchfab_Scene",
      "nodes": [
        0
      ]
    }
  ],
  "textures": [
    {
      "sampler": 0,
      "source": 0
    }
  ]
}
